<mxfile host="app.diagrams.net" modified="2022-06-14T02:23:00.537Z" agent="5.0 (Macintosh; Intel Mac OS X 10_15_7) AppleWebKit/537.36 (KHTML, like Gecko) Chrome/102.0.5005.61 Safari/537.36" etag="oOIlovdLlsnw9gdY1RB3" version="18.2.0" type="github">
  <diagram id="p5NBLqzSTFIIDADKYXvf" name="Page-1">
    <mxGraphModel dx="1538" dy="756" grid="1" gridSize="10" guides="1" tooltips="1" connect="1" arrows="1" fold="1" page="1" pageScale="1" pageWidth="827" pageHeight="1169" math="0" shadow="0">
      <root>
        <mxCell id="0" />
        <mxCell id="1" parent="0" />
        <mxCell id="-CZ4SJs_n75rVengpm8A-1" value="连接机器人" style="ellipse;whiteSpace=wrap;html=1;" parent="1" vertex="1">
          <mxGeometry x="160" y="465" width="140" height="70" as="geometry" />
        </mxCell>
        <mxCell id="-CZ4SJs_n75rVengpm8A-2" value="用户" style="shape=umlActor;verticalLabelPosition=bottom;verticalAlign=top;html=1;" parent="1" vertex="1">
          <mxGeometry x="30" y="450" width="70" height="100" as="geometry" />
        </mxCell>
        <mxCell id="-CZ4SJs_n75rVengpm8A-6" value="机器人端可升级" style="ellipse;whiteSpace=wrap;html=1;" parent="1" vertex="1">
          <mxGeometry x="600" y="465" width="140" height="70" as="geometry" />
        </mxCell>
        <mxCell id="-CZ4SJs_n75rVengpm8A-10" value="Include" style="endArrow=open;endSize=12;dashed=1;html=1;rounded=0;entryX=1;entryY=0.5;entryDx=0;entryDy=0;exitX=0;exitY=0.5;exitDx=0;exitDy=0;" parent="1" source="dl_aMtKgIvR_t_I3cdD3-4" target="-CZ4SJs_n75rVengpm8A-6" edge="1">
          <mxGeometry width="160" relative="1" as="geometry">
            <mxPoint x="285.00393571937116" y="416.64813534336713" as="sourcePoint" />
            <mxPoint x="402.03999999999996" y="463.02" as="targetPoint" />
          </mxGeometry>
        </mxCell>
        <mxCell id="-CZ4SJs_n75rVengpm8A-22" value="Use" style="endArrow=open;endSize=12;dashed=1;html=1;rounded=0;" parent="1" target="-CZ4SJs_n75rVengpm8A-1" edge="1">
          <mxGeometry width="160" relative="1" as="geometry">
            <mxPoint x="90" y="470" as="sourcePoint" />
            <mxPoint x="250" y="470" as="targetPoint" />
          </mxGeometry>
        </mxCell>
        <mxCell id="dl_aMtKgIvR_t_I3cdD3-2" value="创建升级包" style="ellipse;whiteSpace=wrap;html=1;" vertex="1" parent="1">
          <mxGeometry x="820" y="360" width="140" height="70" as="geometry" />
        </mxCell>
        <mxCell id="dl_aMtKgIvR_t_I3cdD3-3" value="FAE" style="shape=umlActor;verticalLabelPosition=bottom;verticalAlign=top;html=1;" vertex="1" parent="1">
          <mxGeometry x="1060" y="400" width="70" height="100" as="geometry" />
        </mxCell>
        <mxCell id="dl_aMtKgIvR_t_I3cdD3-4" value="推送" style="ellipse;whiteSpace=wrap;html=1;" vertex="1" parent="1">
          <mxGeometry x="827" y="465" width="140" height="70" as="geometry" />
        </mxCell>
        <mxCell id="dl_aMtKgIvR_t_I3cdD3-6" value="Include" style="endArrow=open;endSize=12;dashed=1;html=1;rounded=0;exitX=0.229;exitY=0.335;exitDx=0;exitDy=0;exitPerimeter=0;" edge="1" parent="1" source="dl_aMtKgIvR_t_I3cdD3-3" target="dl_aMtKgIvR_t_I3cdD3-2">
          <mxGeometry width="160" relative="1" as="geometry">
            <mxPoint x="494" y="475" as="sourcePoint" />
            <mxPoint x="570" y="545" as="targetPoint" />
          </mxGeometry>
        </mxCell>
        <mxCell id="dl_aMtKgIvR_t_I3cdD3-7" value="Include" style="endArrow=open;endSize=12;dashed=1;html=1;rounded=0;exitX=0.229;exitY=0.335;exitDx=0;exitDy=0;exitPerimeter=0;" edge="1" parent="1">
          <mxGeometry width="160" relative="1" as="geometry">
            <mxPoint x="1086.0300000000002" y="443.5" as="sourcePoint" />
            <mxPoint x="970" y="500" as="targetPoint" />
          </mxGeometry>
        </mxCell>
        <mxCell id="dl_aMtKgIvR_t_I3cdD3-8" value="召回" style="ellipse;whiteSpace=wrap;html=1;" vertex="1" parent="1">
          <mxGeometry x="830" y="585" width="140" height="70" as="geometry" />
        </mxCell>
        <mxCell id="dl_aMtKgIvR_t_I3cdD3-9" value="Include" style="endArrow=open;endSize=12;dashed=1;html=1;rounded=0;exitX=0.229;exitY=0.335;exitDx=0;exitDy=0;exitPerimeter=0;entryX=1;entryY=0.357;entryDx=0;entryDy=0;entryPerimeter=0;" edge="1" parent="1" target="dl_aMtKgIvR_t_I3cdD3-8">
          <mxGeometry width="160" relative="1" as="geometry">
            <mxPoint x="1096.0300000000002" y="453.5" as="sourcePoint" />
            <mxPoint x="980" y="510" as="targetPoint" />
          </mxGeometry>
        </mxCell>
        <mxCell id="dl_aMtKgIvR_t_I3cdD3-10" value="降级" style="ellipse;whiteSpace=wrap;html=1;" vertex="1" parent="1">
          <mxGeometry x="840" y="680" width="140" height="70" as="geometry" />
        </mxCell>
        <mxCell id="dl_aMtKgIvR_t_I3cdD3-11" value="Include" style="endArrow=open;endSize=12;dashed=1;html=1;rounded=0;exitX=0.229;exitY=0.335;exitDx=0;exitDy=0;exitPerimeter=0;entryX=0.993;entryY=0.293;entryDx=0;entryDy=0;entryPerimeter=0;" edge="1" parent="1" target="dl_aMtKgIvR_t_I3cdD3-10">
          <mxGeometry width="160" relative="1" as="geometry">
            <mxPoint x="1106.0300000000002" y="463.5" as="sourcePoint" />
            <mxPoint x="980" y="619.99" as="targetPoint" />
          </mxGeometry>
        </mxCell>
      </root>
    </mxGraphModel>
  </diagram>
</mxfile>
